<svg width="24" height="24" viewBox="0 0 24 24" fill="none" xmlns="http://www.w3.org/2000/svg">
<path d="M5.58105 0.75H18.4189C19.8031 0.75 20.9929 1.70207 21.2725 3.0166L21.3154 3.28418L23.2324 20.084C23.4262 21.783 22.0628 23.25 20.3359 23.25H3.66504C1.99204 23.25 0.66005 21.8731 0.754883 20.2422L0.768555 20.084L2.68555 3.28418C2.85103 1.83357 4.10492 0.750173 5.58105 0.75Z" stroke="white" stroke-width="1.5"/>
<path d="M8.4 6.16667C8.4 5.52234 7.86273 5 7.2 5C6.53725 5 6 5.52234 6 6.16667C6 9.38832 8.68628 12 12 12C15.3137 12 18 9.38832 18 6.16667C18 5.52234 17.4628 5 16.8 5C16.1372 5 15.6 5.52234 15.6 6.16667C15.6 8.09966 13.9882 9.66667 12 9.66667C10.0117 9.66667 8.4 8.09966 8.4 6.16667Z" fill="white"/>
</svg>
