<svg width="24" height="26" viewBox="0 0 24 26" fill="none" xmlns="http://www.w3.org/2000/svg">
<path d="M0 25.0574L1.69505 18.865C0.649083 17.0524 0.0994725 14.9976 0.100477 12.8906C0.103492 6.30333 5.46395 0.942871 12.0502 0.942871C15.2464 0.943876 18.2467 2.18879 20.5034 4.44752C22.7591 6.70625 24.001 9.70851 24 12.9017C23.997 19.49 18.6365 24.8504 12.0502 24.8504C10.0507 24.8494 8.08038 24.348 6.33509 23.3955L0 25.0574ZM6.62848 21.2322C8.31248 22.232 9.92012 22.8308 12.0462 22.8318C17.5202 22.8318 21.9794 18.3767 21.9824 12.8997C21.9844 7.4116 17.5463 2.96246 12.0543 2.96045C6.57624 2.96045 2.12007 7.41562 2.11806 12.8916C2.11706 15.1272 2.77217 16.8012 3.87239 18.5525L2.86863 22.2179L6.62848 21.2322ZM18.0698 15.7422C17.9955 15.6176 17.7965 15.5432 17.4971 15.3935C17.1987 15.2438 15.7307 14.5214 15.4564 14.4219C15.1831 14.3224 14.9842 14.2722 14.7842 14.5716C14.5853 14.87 14.0126 15.5432 13.8387 15.7422C13.6649 15.9411 13.4901 15.9662 13.1917 15.8165C12.8932 15.6668 11.9307 15.3523 10.7903 14.3345C9.90304 13.5427 9.30319 12.5651 9.12936 12.2657C8.95554 11.9672 9.11128 11.8055 9.25998 11.6568C9.39462 11.5231 9.5584 11.3081 9.70811 11.1333C9.85983 10.9605 9.90907 10.8359 10.0095 10.6359C10.109 10.437 10.0598 10.2621 9.98442 10.1124C9.90907 9.96372 9.31223 8.49374 9.06405 7.8959C8.8209 7.31413 8.57473 7.39251 8.39186 7.38346L7.81914 7.37342C7.62019 7.37342 7.29666 7.44777 7.02336 7.74719C6.75006 8.04661 5.9784 8.76804 5.9784 10.238C5.9784 11.708 7.04848 13.1277 7.19719 13.3267C7.3469 13.5256 9.30218 16.542 12.2974 17.8351C13.0098 18.1426 13.5664 18.3264 13.9995 18.4641C14.7149 18.6912 15.366 18.659 15.8804 18.5827C16.4542 18.4973 17.6468 17.8602 17.896 17.1629C18.1452 16.4646 18.1452 15.8668 18.0698 15.7422Z" fill="#25D366"/>
</svg>
